<?xml version="1.0" encoding="UTF-8" standalone="no"?>
<!-- Created with Inkscape (http://www.inkscape.org/) -->

<svg
   xmlns:dc="http://purl.org/dc/elements/1.1/"
   xmlns:cc="http://creativecommons.org/ns#"
   xmlns:rdf="http://www.w3.org/1999/02/22-rdf-syntax-ns#"
   xmlns:svg="http://www.w3.org/2000/svg"
   xmlns="http://www.w3.org/2000/svg"
   xmlns:inkscape="http://www.inkscape.org/namespaces/inkscape"
   version="1.1"
   width="100%"
   height="100%"
   viewBox="0 0 750 214.8875"
   enable-background="0 0 750 214.8875"
   preserveAspectRatio="xMidyMid meet"
   id="svg2"
   xml:space="preserve"><metadata
     id="metadata8"><rdf:RDF><cc:Work
         rdf:about=""><dc:format>image/svg+xml</dc:format><dc:type
           rdf:resource="http://purl.org/dc/dcmitype/StillImage" /></cc:Work></rdf:RDF></metadata><defs
     id="defs6" /><g
     transform="matrix(1.25,0,0,-1.25,0,214.8875)"
     id="g10"><g
       transform="scale(0.1,0.1)"
       id="g12"><path
         d="m 2595.28,7.98828 c -4.87,0 -8.64,3.96092 -8.64,8.80082 l 0,1693.4609 c 0,4.86 3.77,8.82 8.64,8.82 4.85,0 8.79,-3.96 8.79,-8.82 l 0,-1693.4609 c 0,-4.8399 -3.94,-8.80082 -8.79,-8.80082"
         inkscape:connector-curvature="0"
         id="path14"
         style="fill:#b8bab8;fill-opacity:1;fill-rule:nonzero;stroke:none" /><path
         d="m 2979.52,1401.81 c 0,108.8 -25.49,128.41 -102.61,149.62 l -36.22,10.82 c -13.04,3.58 -15.08,5.25 -15.08,10.78 l 0,15.99 c 0,6.84 6.18,8.84 25.52,17.97 l 222.48,97.69 c 17.1,7.32 32.07,14.39 49,14.39 13.16,0 21.65,-14.39 17.34,-44.43 -4.18,-30.32 -6.47,-392.1 -6.47,-481.28 l 0,-114.09 10.78,0 c 74.86,74.85 198.8,116.06 292.75,116.06 90.19,0 152.26,-23.25 212.15,-71.61 96.03,-74.83 91.84,-165.665 91.84,-262.032 l 0,-101.661 c 0,-99.617 4.19,-210.129 4.19,-244.097 0,-21.192 34.33,-26.5 79.42,-26.5 l 36.26,0 c 17,0 23.54,-3.508 23.54,-16.352 l 0,-26.359 c 0,-14.418 -4.56,-21.61 -17.01,-21.61 -15.34,0 -83.67,5.219 -205.52,5.219 -104.96,0 -182.07,-5.219 -200.93,-5.219 -15.41,0 -19.34,5.219 -19.34,19.621 l 0,30.34 c 0,9.102 1.96,14.36 14.85,14.36 l 49.23,0 c 36.2,0 79.11,3.332 81.29,33.66 2.29,24.89 0,119.66 0,176.59 l 0,144.332 c 0,99.687 -8.54,170.928 -70.86,218.908 -42.62,34.01 -87.57,50.34 -140.81,50.34 -62.12,0 -139.24,-17.94 -198.98,-75.17 -19.34,-19.59 -42.85,-54.863 -42.85,-87.238 l 0,-388.493 c 0,-57.289 6.47,-72.929 47.02,-72.929 l 64.1,0 c 15.01,0 23.84,-3.508 23.84,-14.36 l 0,-30.34 c 0,-12.429 -4.6,-19.621 -17.33,-19.621 -17.01,0 -104.55,5.219 -203,5.219 -107.12,0 -188.54,-5.219 -207.42,-5.219 -8.9,0 -15.08,5.219 -15.08,17.93 l 0,32.031 c 0,12.41 8.53,14.36 32.04,14.36 l 44.74,0 c 34.32,0 66.37,6.871 70.64,28.48 6.49,33.981 6.49,229.903 6.49,345.688 l 0,538.212"
         inkscape:connector-curvature="0"
         id="path16"
         style="fill:#182c49;fill-opacity:1;fill-rule:nonzero;stroke:none" /><path
         d="m 4176.37,813.645 c 0,-147.907 6.19,-201.704 32.06,-258.516 21.53,-42.551 111.03,-88.84 203.27,-88.84 128.08,0 286.58,72.832 286.58,306.52 0,172.793 -109.17,336.911 -318.57,336.911 -79.14,0 -156.25,-23.23 -203.34,-64.12 l 0,-231.955 z m -153.89,577.675 c 0,119.29 -23.51,144.1 -100.66,165.34 l -21.24,5.59 c -23.85,5.25 -27.82,8.8 -27.82,14.03 l 0,14.43 c 0,5.15 3.97,8.77 17,14.35 62.1,23.18 173.22,69.58 226.84,98.04 14.83,8.9 31.85,15.97 44.72,15.97 15.05,0 19.25,-8.81 17.35,-30.01 -2.3,-14.42 -2.3,-218 -2.3,-376.51 l 0,-206.84 c 68.41,55.55 190.32,89.62 295.31,89.62 187.98,0 391.29,-126.83 391.29,-381.685 0,-208.516 -201.35,-404.536 -445.08,-404.536 -119.7,0 -202.95,21.25 -252.33,46.34 l -85.31,-39.328 c -8.44,-5.441 -15,-7.012 -28.06,-5.441 l -25.76,5.441 c -8.51,1.77 -10.47,5.668 -8.51,14.238 4.56,25.09 4.56,172.93 4.56,303.243 l 0,657.718"
         inkscape:connector-curvature="0"
         id="path18"
         style="fill:#182c49;fill-opacity:1;fill-rule:nonzero;stroke:none" /><path
         d="m 5084.35,1453.77 c 0,72.87 -6.18,102.86 -110.83,126.48 -23.72,5.21 -30.35,6.91 -30.35,12.32 l 0,16.1 c 0,6.87 6.63,10.43 27.84,17.96 l 218.26,78.05 c 19.61,7.32 34.33,14.39 47.1,14.39 12.73,0 15.07,-8.81 12.73,-30.01 -10.47,-85.63 -10.47,-348.07 -10.47,-561.73 l 0,-281.701 c 27.8,0 81.06,5.535 102.63,19.594 40.6,23.215 209.44,178.477 226.8,200.037 12.7,19.23 12.7,33.6 0,40.45 -17.36,10.8 -42.86,10.8 -55.79,10.8 -14.82,0 -17.01,5.55 -17.01,16.38 l 0,33.62 c 0,9.17 4.17,14.4 14.97,14.4 13.11,0 89.84,-5.23 199.02,-5.23 104.55,0 158.14,5.23 173.15,5.23 8.47,0 12.78,-5.23 12.78,-17.95 l 0,-32.03 c 0,-10.86 -2.32,-14.42 -17.03,-14.42 l -15,0 c -42.87,0 -104.61,-17.65 -147.39,-40.87 -30.36,-14.38 -209.83,-153.261 -282.7,-212.042 42.84,-35.528 402.27,-334.969 438.49,-349.309 38.66,-16.051 87.97,-24.859 111.41,-24.859 12.84,0 17.04,-3.508 17.04,-16.352 l 0,-31.59 c 0,-11.16 -4.2,-16.379 -19.27,-16.379 -17.27,0 -77.12,5.219 -177.44,5.219 -126.43,0 -216.02,-5.219 -233.36,-5.219 -10.38,0 -15,5.219 -15,17.93 l 0,28.461 c 0,8.828 4.62,14.422 21.65,14.422 l 14.98,0 c 17.17,0 29.75,12.316 23.24,28.367 -6.07,14.34 -250.03,230.074 -284.01,256.496 -23.88,16.406 -64.36,19.656 -92.16,19.656 l 0,-78.48 c 0,-62.383 0,-122.941 1.97,-185.16 2.28,-25.27 13.06,-37.371 42.86,-37.371 l 61.97,0 c 15.16,0 19.34,-3.508 19.34,-14.36 l 0,-30.34 c 0,-14.402 -4.18,-19.621 -17,-19.621 -13.04,0 -83.67,5.219 -190.53,5.219 -115.63,0 -190.21,-5.219 -205.2,-5.219 -6.54,0 -10.76,7.192 -10.76,17.93 l 0,30.039 c 0,12.844 6.5,16.352 21.25,16.352 l 79.08,0 c 28.09,0 38.89,19.699 38.89,42.832 1.97,78.136 3.85,174.488 3.85,331.336 l 0,590.172"
         inkscape:connector-curvature="0"
         id="path20"
         style="fill:#182c49;fill-opacity:1;fill-rule:nonzero;stroke:none" /><path
         d="m 2921.32,147.289 c 2.98,0 43.69,1.52 48.26,2.031 11.27,2.11 14.71,5.032 20.14,16.489 1.67,3.589 4.39,10.839 5.93,18.019 0.34,1.742 1.48,2.551 2.96,2.551 l 9.28,-0.199 c 2.04,0 2.56,-1.539 1.96,-3.09 -2.13,-6.442 -7.09,-36.77 -8.15,-41.891 -1.92,-12.98 -3.53,-30.961 -4.12,-38.629 -0.3,-1.711 -1.16,-2.7106 -2.76,-2.9997 l -8.27,-1.1797 c -2.16,-0.3125 -2.64,0.9805 -2.6,3.5784 0.03,4.679 -0.94,13.203 -1.31,17.312 -1.02,7.617 -4.16,13.36 -13.96,14.047 -17.37,2.172 -43.4,2.172 -49.37,2.172 l -3.7,-23.078 c -3.57,-19.8907 -8.49,-55.8829 -9.77,-63.1017 -2.8,-19.1094 5.5,-26.6484 16.65,-28.9492 7.5,-1.4023 18.04,-2.4102 27.47,-2.4102 6.49,0 25.53,0.3985 33.35,1.0079 6.73,0.7929 23.93,5.0195 35.15,12.9296 5.09,3.711 30.75,30.3008 37.26,38.7618 1.36,1.7617 2.81,3.1992 5.08,2.3593 l 5.09,-3.4882 c 1.99,-0.8125 1.87,-2.0704 -0.05,-5.0625 l -29.01,-54.3985 c -1.62,-3.23046 -4.6,-5.30858 -9.07,-5.30858 -1.79,0 -10.15,0.22656 -32.6,0.57812 -22.61,0 -59.2,0.3086 -118.17,0.3086 -13.99,0 -24.61,-0.3086 -32.01,-0.3086 -8.11,-0.35156 -13.04,-0.57812 -16.3,-0.57812 -2.37,0 -3.51,0.57812 -2.93,2.41016 l 1.65,10.00002 c 0.19,1.5 1.38,1.7969 4,1.7969 l 15.06,0 c 17.34,0 19.22,2.582 21.65,16.3593 l 20.37,123.6129 c 5.35,30.75 11.85,77.039 12.01,80.739 0.8,11.922 -2.82,14.422 -16.47,14.422 l -13.85,0 c -1.91,0 -2.98,0.378 -2.31,2.457 l 1.68,10.07 c 0.13,1.101 1.03,1.93 2.87,1.93 8.43,0 21.43,-1.098 46.17,-1.098 l 16.52,0 c 37.45,0 74.8,0.269 112.34,0.269 5.95,0 13.3,0.829 15.02,0.829 1.79,0 2.62,-0.829 2.84,-1.93 l 9.15,-59.559 c 0.12,-1.5 -0.03,-2.66 -1.56,-3.218 l -6.03,-3.043 c -1.29,-0.829 -2.74,0.261 -2.81,1.371 -0.57,1.41 -22.77,36.441 -30.78,41.961 -7.13,5.031 -17.13,9.488 -27.1,9.961 l -67.04,1.507 -17.81,-108.32"
         inkscape:connector-curvature="0"
         id="path22"
         style="fill:#192b49;fill-opacity:1;fill-rule:nonzero;stroke:none" /><path
         d="m 3185.26,219.48 c 3.53,21.739 -5.61,33.86 -19.48,34.149 l -15.06,0.473 c -2.21,0 -2.32,1.507 -1.87,2.457 l 1.62,9.722 c 0.25,1.449 0.46,2.278 2.32,2.278 2.13,0 5.03,-0.438 10.81,-0.438 5.56,-0.391 13.58,-0.66 26.47,-0.66 12.95,0 20.71,0.66 25.57,0.66 4.79,0 7.44,-1.492 10.16,-4.762 l 62.49,-100.449 c 3.23,-5.379 54.25,-81.8514 61.45,-93.6717 l 1.54,0 7.14,43.9217 c 5.6,32.961 8.19,51.211 10.4,69.488 2.05,14.454 6.37,50.582 5.17,57.032 -1.57,9.23 -8.01,14.422 -18.58,14.422 l -11.91,0 c -1.57,0 -2.39,0.75 -1.71,2.457 l 1.52,9.722 c 0.19,1.449 0.76,2.278 2.31,2.278 5.47,0 17.19,-1.098 41.4,-1.098 22.83,0 31.98,1.098 36.76,1.098 2.69,0 2.85,-1.098 2.68,-2.598 l -1.47,-9.402 c -0.18,-1.43 -1.29,-2.457 -2.8,-2.457 l -10.19,0 c -10.21,0 -14.99,-6.461 -17.97,-20.211 -5.59,-25.102 -11.69,-61.532 -15.67,-85.36 L 3355.39,10.0703 c -0.95,-5.08202 -1.79,-8.71874 -3.33,-8.71874 -4.38,0 -7.06,4.29688 -8.22,5.82032 l -36.45,57.06642 c -21.23,32.1328 -43.14,65.8517 -44.89,68.4027 -3.41,3.531 -58.92,88.937 -60.66,91.871 l -2.14,0 -13.68,-81.832 c -5.79,-34.602 -12.54,-94.7698 -13.22,-102.3714 -0.72,-14.4297 0.27,-21.3398 10.35,-21.3398 l 11.41,0 c 2.79,0 2.82,-1.0079 2.65,-3.25 l -1.47,-7.94927 c -0.25,-2.42969 -1.01,-3.00781 -3.32,-3.00781 -3.98,0 -26.6,0.88672 -36.78,0.88672 -7.78,0 -33.9,-0.88672 -37.87,-0.88672 -1.51,0 -1.72,0.57812 -1.48,2.41016 l 1.59,9.66792 c 0.21,1.1211 0.82,2.129 2.65,2.129 l 12.89,0 c 11.06,0 15.83,4.2929 20.61,22.6523 2.2,7 9.76,49.1602 20.83,114.8199 l 10.4,63.039"
         inkscape:connector-curvature="0"
         id="path24"
         style="fill:#192b49;fill-opacity:1;fill-rule:nonzero;stroke:none" /><path
         d="m 3669.76,87.5508 c 2.01,13.3082 -1.4,16.8082 -12.79,16.8082 l -15.78,0 c -1.92,0 -2.27,0.832 -2.18,2.289 l 1.62,9.082 c 0.16,2.348 0.65,3.129 2.78,3.129 5.07,0 21.93,-1.058 47.73,-1.058 26.88,0 39.39,1.058 44.34,1.058 2.87,0 3,-1.058 2.8,-2.461 l -1.51,-9.046 c -0.2,-1.5 -0.68,-2.993 -3.05,-2.993 l -14.66,0 c -6.93,0 -12.11,-2.39 -14.25,-13.8707 l -7.89,-48.8672 c -1,-5.2422 0.02,-8.9219 -0.49,-11.7813 -0.59,-2.9179 -2.99,-4.3593 -7.2,-5.8515 C 3656.43,8.57813 3624.67,0 3582.57,0 c -33.46,0 -77.75,12.5391 -98.68,42.4805 -18.8,25.2695 -25.48,56.8906 -18.15,101.5975 5.67,33.684 26.24,69.5 58.2,93.641 30.85,22.519 66.73,35.32 112.06,35.32 32.36,0 59.52,-12 70.55,-21.437 3.76,-3.641 6.33,-2.692 8.78,0.328 l 6.91,6.609 c 1.71,1.582 3.61,3.231 5.74,3.231 2.66,0 3.03,-1.649 2.68,-4.379 l -10.38,-70.621 c -0.71,-1.821 -1.02,-3.29 -2.56,-3.29 l -7.01,-0.832 c -1.41,0 -2.22,1.18 -2.28,2.903 -1.37,10.648 -5.06,28.027 -15.59,43.648 -8.89,13.84 -29.79,30.321 -63.53,30.321 -26.05,0 -50.59,-6.18 -76.99,-29.879 -24.1,-21.051 -41.84,-51.59 -47.47,-85.102 -7.2,-43.41 -1.18,-81.4804 18.63,-103.2304 16.03,-18.0469 37.68,-26.2891 62.22,-26.2891 30.2,0 49.47,5.0508 63.96,12.3711 9.61,5.3086 12.44,13.6407 15.62,32.7383 l 4.48,27.4219"
         inkscape:connector-curvature="0"
         id="path26"
         style="fill:#192b49;fill-opacity:1;fill-rule:nonzero;stroke:none" /><path
         d="m 3852,160.609 c 1.48,8.789 11.11,75.371 11.83,80.922 0.5,8.91 -2.54,12.571 -16.86,12.571 l -21.84,0 c -1.75,0 -3.01,0.75 -2.82,2.128 l 1.7,10.051 c 0.5,1.449 1.71,2.278 3.24,2.278 4.46,0 23.59,-1.098 58.58,-1.098 33.52,0 45.93,1.098 51.05,1.098 2.16,0 2.47,-1.098 2.44,-2.598 l -1.61,-9.402 c -0.19,-1.707 -1.56,-2.457 -3.59,-2.457 l -17.68,0 c -7.62,0 -13.7,-2.852 -14.89,-10.512 -0.75,-3.481 -15.29,-85.07 -15.93,-89.391 l -4.64,-28.73 c -0.93,-3.699 -13.94,-89.0901 -14.35,-93.0784 -2.21,-11.5 3.34,-13.4218 15.22,-13.4218 l 15.74,0 c 1.59,0 2.87,-0.6094 2.56,-2.5196 l -1.56,-9.60936 c -0.24,-1.5 -1.53,-2.07812 -3.93,-2.07812 -4.54,0 -19.37,0.88672 -52.19,0.88672 -35.97,0 -52.35,-0.88672 -56.44,-0.88672 -1.9,0 -2.86,0.57812 -2.67,2.07812 l 1.83,9.99996 c 0.14,1.5196 1.53,2.129 3.24,2.129 l 20.98,0 c 7.84,0 15.78,1.1015 18.89,10.8906 1.84,5.4687 16.03,85.3126 19.47,104.8316 l 4.23,25.918"
         inkscape:connector-curvature="0"
         id="path28"
         style="fill:#192b49;fill-opacity:1;fill-rule:nonzero;stroke:none" /><path
         d="m 4043.53,219.48 c 3.42,21.739 -5.82,33.86 -19.06,34.149 l -15.69,0.473 c -1.77,0 -2.06,1.507 -1.71,2.457 l 1.5,9.722 c 0.21,1.449 0.61,2.278 2.82,2.278 1.8,0 4.74,-0.438 10.35,-0.438 5.74,-0.391 13.74,-0.66 26.65,-0.66 12.83,0 21.06,0.66 25.5,0.66 4.79,0 7.53,-1.492 10.02,-4.762 l 62.63,-100.449 c 3.22,-5.379 54.28,-81.8514 61.34,-93.6717 l 1.45,0 7.38,43.9217 c 5.36,32.961 8.21,51.211 10.24,69.488 2.23,14.454 6.32,50.582 5.13,57.032 -1.51,9.23 -8.04,14.422 -18.39,14.422 l -12.11,0 c -1.49,0 -2.14,0.75 -1.77,2.457 l 1.51,9.722 c 0.26,1.449 1.08,2.278 2.52,2.278 5.34,0 17.17,-1.098 41.42,-1.098 22.8,0 31.92,1.098 36.7,1.098 2.73,0 2.84,-1.098 2.73,-2.598 l -1.63,-9.402 c -0.09,-1.43 -1.2,-2.457 -2.72,-2.457 l -10.18,0 c -10.09,0 -14.82,-6.461 -17.81,-20.211 -5.77,-25.102 -11.73,-61.532 -15.91,-85.36 L 4213.65,10.0703 c -0.83,-5.08202 -1.79,-8.71874 -3.27,-8.71874 -4.52,0 -7.32,4.29688 -8.18,5.82032 l -36.54,57.06642 c -21.25,32.1328 -43.22,65.8517 -44.91,68.4027 -3.42,3.531 -58.72,88.937 -60.75,91.871 l -1.97,0 -13.94,-81.832 c -5.63,-34.602 -12.37,-94.7698 -13.08,-102.3714 -0.61,-14.4297 0.18,-21.3398 10.36,-21.3398 l 11.42,0 c 2.63,0 2.81,-1.0079 2.48,-3.25 l -1.29,-7.94927 c -0.39,-2.42969 -0.99,-3.00781 -3.52,-3.00781 -3.7,0 -25.97,0.88672 -36.24,0.88672 -8.15,0 -34.44,-0.88672 -38.14,-0.88672 -1.45,0 -1.63,0.57812 -1.42,2.41016 l 1.52,9.66792 c 0.29,1.1211 0.82,2.129 2.68,2.129 l 12.86,0 c 11.05,0 15.83,4.2929 20.61,22.6523 2.15,7 9.73,49.1602 20.77,114.8199 l 10.43,63.039"
         inkscape:connector-curvature="0"
         id="path30"
         style="fill:#192b49;fill-opacity:1;fill-rule:nonzero;stroke:none" /><path
         d="m 4403.37,147.289 c 2.98,0 43.45,1.52 48.16,2.031 11.32,2.11 14.59,5.032 20.02,16.489 1.65,3.589 4.37,10.839 5.91,18.019 0.67,1.742 1.54,2.551 3.14,2.551 l 9.58,-0.199 c 1.72,0 2.44,-1.539 1.62,-3.09 -1.98,-6.442 -7.21,-36.77 -7.98,-41.891 -2.25,-12.98 -3.6,-30.961 -4.02,-38.629 -0.67,-1.711 -1.3,-2.7106 -2.77,-2.9997 l -8.59,-1.1797 c -1.86,-0.3125 -2.53,0.9805 -2.49,3.5784 0.02,4.679 -0.67,13.203 -1.45,17.312 -0.71,7.617 -4.2,13.36 -13.54,14.047 -17.48,2.172 -43.55,2.172 -49.55,2.172 l -3.91,-23.078 c -3.25,-19.8907 -8.51,-55.8829 -9.87,-63.1017 -2.7,-19.1094 5.56,-26.6484 17,-28.9492 7.26,-1.4023 17.96,-2.4102 27.53,-2.4102 6.31,0 25.11,0.3985 33.35,1.0079 6.36,0.7929 23.67,5.0195 34.91,12.9296 5.22,3.711 30.59,30.3008 37.41,38.7618 1.47,1.7617 2.81,3.1992 4.78,2.3593 l 5.49,-3.4882 c 1.64,-0.8125 1.45,-2.0704 -0.04,-5.0625 l -28.93,-54.3985 c -1.71,-3.23046 -4.77,-5.30858 -9.48,-5.30858 -1.84,0 -10.08,0.22656 -32.43,0.57812 -22.8,0 -59.3,0.3086 -117.97,0.3086 -14.04,0 -24.74,-0.3086 -32.42,-0.3086 -7.88,-0.35156 -12.94,-0.57812 -16.37,-0.57812 -1.87,0 -3.19,0.57812 -2.89,2.41016 l 1.63,10.00002 c 0.19,1.5 1.38,1.7969 4.2,1.7969 l 14.86,0 c 17.4,0 19.56,2.582 21.73,16.3593 l 20.48,123.6129 c 5.17,30.75 12.12,77.039 12.25,80.739 0.46,11.922 -2.88,14.422 -16.91,14.422 l -13.55,0 c -1.8,0 -2.8,0.378 -2.51,2.457 l 1.56,10.07 c 0.15,1.101 1.12,1.93 2.89,1.93 8.45,0 21.46,-1.098 46.27,-1.098 l 16.8,0 c 37.17,0 74.6,0.269 112,0.269 5.93,0 13.29,0.829 15.21,0.829 1.88,0 2.47,-0.829 2.63,-1.93 l 9.56,-59.559 c 0.11,-1.5 -0.06,-2.66 -1.66,-3.218 l -6.36,-3.043 c -1.29,-0.829 -2.3,0.261 -2.79,1.371 -0.5,1.41 -22.46,36.441 -30.67,41.961 -7.24,5.031 -16.84,9.488 -26.87,9.961 l -67.2,1.507 -17.75,-108.32"
         inkscape:connector-curvature="0"
         id="path32"
         style="fill:#192b49;fill-opacity:1;fill-rule:nonzero;stroke:none" /><path
         d="m 4692.81,147.289 c 3.05,0 43.6,1.52 48.22,2.031 11.31,2.11 14.7,5.032 20.18,16.489 1.62,3.589 4.36,10.839 5.92,18.019 0.23,1.742 1.48,2.551 3,2.551 l 9.53,-0.199 c 1.81,0 2.29,-1.539 1.74,-3.09 -2.22,-6.442 -7.18,-36.77 -8.3,-41.891 -1.92,-12.98 -3.4,-30.961 -4.14,-38.629 -0.26,-1.711 -0.95,-2.7106 -2.61,-2.9997 l -8.26,-1.1797 c -2.27,-0.3125 -2.74,0.9805 -2.7,3.5784 0.04,4.679 -0.85,13.203 -1.34,17.312 -0.97,7.617 -4.1,13.36 -13.51,14.047 -17.51,2.172 -43.53,2.172 -49.78,2.172 l -3.65,-23.078 c -3.51,-19.8907 -8.62,-55.8829 -9.92,-63.1017 -2.69,-19.1094 5.58,-26.6484 16.92,-28.9492 7.31,-1.4023 17.89,-2.4102 27.46,-2.4102 6.36,0 25.36,0.3985 33.53,1.0079 6.38,0.7929 23.65,5.0195 34.92,12.9296 4.99,3.711 30.63,30.3008 37.13,38.7618 1.5,1.7617 2.82,3.1992 5.07,2.3593 l 5.52,-3.4882 c 1.62,-0.8125 1.44,-2.0704 -0.06,-5.0625 l -29.07,-54.3985 c -1.98,-3.23046 -4.96,-5.30858 -9.29,-5.30858 -1.92,0 -10.25,0.22656 -32.61,0.57812 -22.74,0 -59.22,0.3086 -118.2,0.3086 -13.76,0 -24.68,-0.3086 -32.1,-0.3086 -7.81,-0.35156 -12.97,-0.57812 -16.32,-0.57812 -2.31,0 -3.53,0.57812 -2.91,2.41016 l 1.65,10.00002 c 0.21,1.5 1.39,1.7969 4.07,1.7969 l 14.93,0 c 17.4,0 19.29,2.582 21.71,16.3593 l 20.5,123.6129 c 5.15,30.75 11.83,77.039 12.35,80.739 0.32,11.922 -2.87,14.422 -16.92,14.422 l -13.61,0 c -2.04,0 -2.83,0.378 -2.52,2.457 l 1.62,10.07 c 0.16,1.101 1,1.93 2.89,1.93 8.47,0 21.34,-1.098 46.21,-1.098 l 16.49,0 c 37.42,0 74.9,0.269 112.34,0.269 5.89,0 13.33,0.829 14.98,0.829 1.85,0 2.67,-0.829 2.8,-1.93 l 9.32,-59.559 c 0.44,-1.5 -0.08,-2.66 -1.67,-3.218 l -6.1,-3.043 c -1.32,-0.829 -2.68,0.261 -2.79,1.371 -0.42,1.41 -22.81,36.441 -30.62,41.961 -7.24,5.031 -17.13,9.488 -27.26,9.961 l -66.89,1.507 -17.85,-108.32"
         inkscape:connector-curvature="0"
         id="path34"
         style="fill:#192b49;fill-opacity:1;fill-rule:nonzero;stroke:none" /><path
         d="m 4978.46,137.281 c 5.62,-1.109 9.6,-1.441 16.64,-1.441 68.86,0 89.62,46.219 92.27,61.75 2.83,16.898 -2.5,33.051 -11.84,42.09 -12.81,11.57 -28.47,16.879 -60.03,16.879 -4.55,0 -9.36,-0.61 -13.23,-2.93 -3.04,-1.699 -5.68,-5.988 -6.27,-11.809 l -17.54,-104.539 z m -27.63,36.489 c 4.4,27.3 8.19,51.031 9.52,61.91 2.02,11.961 -1.71,18.422 -10.99,18.422 l -15.32,0 c -1.86,0 -2.03,1.027 -1.8,2.457 l 1.5,9.402 c 0.3,1.769 1.08,2.598 2.82,2.598 3.31,0 14.7,-1.098 46.63,-1.098 21.07,0 56.28,1.098 63.15,1.098 31.24,0 54.51,-9.387 66.96,-22.618 10.26,-11.652 14.65,-28.582 12.4,-42.089 -7.57,-46.321 -32.05,-63.633 -82,-73.883 l -0.1,-1 c 8.62,-3.199 12.51,-9.688 15.02,-13.797 3.86,-4.934 24.26,-42.7501 26.33,-47.422 1.34,-3.5117 20.05,-37.2812 26.18,-42.2695 7.03,-5.7188 15.61,-6.5117 26.23,-6.5117 2.67,0 2.73,-1.5391 2.57,-2.9297 l -1.4,-8.07816 c -0.38,-2.3125 -0.8,-3.19922 -3.49,-3.19922 -2.95,0 -12.66,0.88672 -29.27,0.88672 -10.92,0 -25.07,-0.66016 -30.93,-0.88672 -3.26,3.47656 -9.51,16.12888 -12.15,20.92968 -2.42,4.5195 -16.88,39.457 -18.39,42.3399 -0.88,2.6289 -14.61,29.5781 -18.19,34.5387 -8.06,11.399 -15.56,21.418 -37.29,21.418 -3.35,0 -7.23,0 -12.64,-1.148 l -3.47,-20.559 c -3.74,-21.8513 -10.12,-63.4099 -10.4,-68.9021 -0.81,-7.6875 1.02,-14.4101 6.67,-14.4101 l 23.85,0 c 2.8,0 3.01,-1.0079 2.4,-2.9297 l -0.98,-8.07816 c -0.77,-2.6211 -1.16,-3.19922 -4.94,-3.19922 -4.25,0 -13.43,0.88672 -49.39,0.88672 -33.98,0 -42.92,-0.88672 -47.04,-0.88672 -3.01,0 -2.89,0.88672 -2.71,3.00781 l 1.54,8.26957 c 0.16,1.9218 0.31,2.9297 2.41,2.9297 l 15.22,0 c 8.42,0 15.35,2.582 17.04,12.621 6.94,36.4415 12.63,71.2112 18.38,106.2892 l 6.07,35.891"
         inkscape:connector-curvature="0"
         id="path36"
         style="fill:#192b49;fill-opacity:1;fill-rule:nonzero;stroke:none" /><path
         d="m 5248.17,160.609 c 1.36,8.789 11.22,75.371 11.64,80.922 0.6,8.91 -2.46,12.571 -16.87,12.571 l -21.95,0 c -1.65,0 -2.84,0.75 -2.6,2.128 l 1.89,10.051 c 0.18,1.449 1.52,2.278 2.93,2.278 4.48,0 23.49,-1.098 58.68,-1.098 33.43,0 45.81,1.098 50.99,1.098 2.08,0 2.51,-1.098 2.24,-2.598 l -1.55,-9.402 c -0.27,-1.707 -1.5,-2.457 -3.52,-2.457 l -17.64,0 c -7.52,0 -13.52,-2.852 -14.81,-10.512 -0.58,-3.481 -15.55,-85.07 -16.01,-89.391 l -4.64,-28.73 c -0.82,-3.699 -13.87,-89.0901 -14.36,-93.0784 -2.06,-11.5 3.31,-13.4218 15.37,-13.4218 l 15.46,0 c 1.78,0 3,-0.6094 2.77,-2.5196 l -1.6,-9.60936 c -0.26,-1.5 -1.4,-2.07812 -3.93,-2.07812 -4.48,0 -19.39,0.88672 -52.22,0.88672 -35.58,0 -52.26,-0.88672 -56.44,-0.88672 -1.73,0 -2.9,0.57812 -2.82,2.07812 l 1.93,9.99996 c 0.21,1.5196 1.43,2.129 3.34,2.129 l 21.3,0 c 7.43,0 15.34,1.1015 18.32,10.8906 1.99,5.4687 16.11,85.3126 19.59,104.8316 l 4.51,25.918"
         inkscape:connector-curvature="0"
         id="path38"
         style="fill:#192b49;fill-opacity:1;fill-rule:nonzero;stroke:none" /><path
         d="m 5439.35,219.48 c 3.46,21.739 -5.59,33.86 -19.07,34.149 l -15.53,0.473 c -1.8,0 -1.85,1.507 -1.71,2.457 l 1.49,9.722 c 0.3,1.449 0.75,2.278 2.63,2.278 1.84,0 4.88,-0.438 10.55,-0.438 5.57,-0.391 13.67,-0.66 26.5,-0.66 12.83,0 21.09,0.66 25.69,0.66 4.71,0 7.58,-1.492 9.97,-4.762 l 62.6,-100.449 c 3.16,-5.379 54.26,-81.8514 61.38,-93.6717 l 1.46,0 7.38,43.9217 c 5.46,32.961 8.17,51.211 10.54,69.488 1.92,14.454 6.04,50.582 4.8,57.032 -1.41,9.23 -7.58,14.422 -18.49,14.422 l -11.9,0 c -1.49,0 -2.43,0.75 -1.86,2.457 l 1.68,9.722 c 0.18,1.449 1.05,2.278 2.57,2.278 5.05,0 17.01,-1.098 41.35,-1.098 22.7,0 31.71,1.098 36.62,1.098 2.63,0 2.83,-1.098 2.61,-2.598 l -1.58,-9.402 c -0.25,-1.43 -1.14,-2.457 -2.66,-2.457 l -10.25,0 c -10.03,0 -14.83,-6.461 -17.92,-20.211 -5.58,-25.102 -11.61,-61.532 -15.72,-85.36 L 5609.54,10.0703 c -0.61,-5.08202 -1.74,-8.71874 -3.2,-8.71874 -4.61,0 -7.3,4.29688 -8.18,5.82032 l -36.67,57.06642 c -20.98,32.1328 -43.08,65.8517 -44.96,68.4027 -3.36,3.531 -58.48,88.937 -60.53,91.871 l -2.16,0 -13.74,-81.832 c -5.58,-34.602 -12.41,-94.7698 -13.14,-102.3714 -0.58,-14.4297 0.17,-21.3398 10.8,-21.3398 l 11,0 c 2.58,0 2.79,-1.0079 2.5,-3.25 l -1.34,-7.94927 c -0.28,-2.42969 -0.69,-3.00781 -3.33,-3.00781 -4.05,0 -26.3,0.88672 -36.41,0.88672 -8.04,0 -34.28,-0.88672 -38.29,-0.88672 -1.46,0 -1.57,0.57812 -1.42,2.41016 l 1.56,9.66792 c 0.5,1.1211 1.01,2.129 2.77,2.129 l 12.94,0 c 11.04,0 15.76,4.2929 20.94,22.6523 1.66,7 9.41,49.1602 20.44,114.8199 l 10.23,63.039"
         inkscape:connector-curvature="0"
         id="path40"
         style="fill:#192b49;fill-opacity:1;fill-rule:nonzero;stroke:none" /><path
         d="m 5923.98,87.5508 c 2.25,13.3082 -1.33,16.8082 -12.74,16.8082 l -15.83,0 c -1.83,0 -2.41,0.832 -2.12,2.289 l 1.47,9.082 c 0.3,2.348 0.68,3.129 2.74,3.129 5.12,0 22.08,-1.058 47.72,-1.058 27.31,0 39.44,1.058 44.91,1.058 2.24,0 2.81,-1.058 2.2,-2.461 l -1.38,-9.046 c -0.19,-1.5 -0.69,-2.993 -3.04,-2.993 l -14.76,0 c -6.99,0 -11.88,-2.39 -14.06,-13.8707 l -7.9,-48.8672 c -1.1,-5.2422 0.07,-8.9219 -0.79,-11.7813 -0.34,-2.9179 -2.94,-4.3593 -6.74,-5.8515 C 5910.63,8.57813 5879.05,0 5836.77,0 c -33.62,0 -77.85,12.5391 -98.78,42.4805 -18.77,25.2695 -25.41,56.8906 -17.67,101.5975 5.24,33.684 26.15,69.5 58.05,93.641 30.51,22.519 66.68,35.32 111.91,35.32 32.37,0 59.62,-12 70.92,-21.437 3.34,-3.641 5.86,-2.692 8.61,0.328 l 6.58,6.609 c 2.07,1.582 3.76,3.231 5.79,3.231 2.81,0 3.15,-1.649 2.81,-4.379 l -10.65,-70.621 c -0.19,-1.821 -0.95,-3.29 -2.49,-3.29 l -6.94,-0.832 c -1.49,0 -2.17,1.18 -2.26,2.903 -1.34,10.648 -5.01,28.027 -15.61,43.648 -8.95,13.84 -29.46,30.321 -63.64,30.321 -26.06,0 -50.6,-6.18 -76.99,-29.879 -23.73,-21.051 -41.81,-51.59 -47.46,-85.102 -7.13,-43.41 -0.77,-81.4804 18.86,-103.2304 15.86,-18.0469 37.45,-26.2891 62.06,-26.2891 30.17,0 49.4,5.0508 63.81,12.3711 9.78,5.3086 12.69,13.6407 15.87,32.7383 l 4.43,27.4219"
         inkscape:connector-curvature="0"
         id="path42"
         style="fill:#192b49;fill-opacity:1;fill-rule:nonzero;stroke:none" /><path
         d="m 1490.19,1335.86 12.92,0 0,-149.95 c 0,-51.57 -22.88,-78.6 -62.14,-78.6 -39.34,0 -62.2,27.03 -62.2,78.6 l 0,149.95 12.92,0 0,-152.22 c 0,-42.87 19.62,-64.1 49.28,-64.1 29.96,0 49.22,20.93 49.22,64.1 l 0,152.22"
         inkscape:connector-curvature="0"
         id="path44"
         style="fill:#192b49;fill-opacity:1;fill-rule:nonzero;stroke:none" /><path
         d="m 1606.09,1110.53 0,213.11 -56,0 0,12.22 124.67,0 0,-12.22 -55.72,0 0,-213.11 -12.95,0"
         inkscape:connector-curvature="0"
         id="path46"
         style="fill:#192b49;fill-opacity:1;fill-rule:nonzero;stroke:none" /><path
         d="m 1725.32,1110.53 12.8516,0 0,225.324 -12.8516,0 0,-225.324 z"
         inkscape:connector-curvature="0"
         id="path48"
         style="fill:#192b49;fill-opacity:1;fill-rule:nonzero;stroke:none" /><path
         d="m 1808.03,1110.53 0,225.33 12.86,0 0,-213.11 93.09,0 0,-12.22 -105.95,0"
         inkscape:connector-curvature="0"
         id="path50"
         style="fill:#192b49;fill-opacity:1;fill-rule:nonzero;stroke:none" /><path
         d="m 1964.57,1110.53 12.8594,0 0,225.324 -12.8594,0 0,-225.324 z"
         inkscape:connector-curvature="0"
         id="path52"
         style="fill:#192b49;fill-opacity:1;fill-rule:nonzero;stroke:none" /><path
         d="m 2083.98,1110.53 0,213.11 -56.01,0 0,12.22 124.57,0 0,-12.22 -55.71,0 0,-213.11 -12.85,0"
         inkscape:connector-curvature="0"
         id="path54"
         style="fill:#192b49;fill-opacity:1;fill-rule:nonzero;stroke:none" /><path
         d="m 2238.52,1110.53 0,68.56 -57.91,156.77 13.47,0 41.85,-114.54 c 4.55,-12.94 8.68,-29.63 8.68,-29.63 l 0.74,0 c 0,0 3.82,16.69 8.69,29.63 l 41.51,114.54 13.8,0 -57.89,-156.77 0,-68.56 -12.94,0"
         inkscape:connector-curvature="0"
         id="path56"
         style="fill:#192b49;fill-opacity:1;fill-rule:nonzero;stroke:none" /><path
         d="m 0,774.504 12.8789,0 0,225.414 -12.8789,0 0,-225.414 z"
         inkscape:connector-curvature="0"
         id="path58"
         style="fill:#192b49;fill-opacity:1;fill-rule:nonzero;stroke:none" /><path
         d="M 203.199,774.504 107.215,948.348 C 100.172,961.59 94.9961,973.84 94.9961,973.84 l -0.6367,0 c 0,0 1.2695,-13.887 1.2695,-29.332 l 0,-170.004 -12.8555,0 0,225.414 11.2891,0 95.5705,-174.164 c 5.488,-10.078 12.543,-25.774 12.543,-25.774 l 0.719,0 c 0,0 -1.028,18.305 -1.028,28.958 l 0,170.98 12.946,0 0,-225.414 -11.614,0"
         inkscape:connector-curvature="0"
         id="path60"
         style="fill:#192b49;fill-opacity:1;fill-rule:nonzero;stroke:none" /><path
         d="m 284.641,774.504 0,225.414 105.902,0 0,-12.219 -92.988,0 0,-111.125 80.172,0 0,-12.207 -80.172,0 0,-89.863 -12.914,0"
         inkscape:connector-curvature="0"
         id="path62"
         style="fill:#192b49;fill-opacity:1;fill-rule:nonzero;stroke:none" /><path
         d="m 498.496,862.73 c 39.895,0 59.246,23.793 59.246,62.426 0,38.66 -19.351,62.543 -59.246,62.543 l -38.019,0 0,-124.969 38.019,0 z m 55.305,-88.226 -36.969,77.644 c -5.477,-1.347 -11.91,-1.664 -18.336,-1.664 l -38.019,0 0,-75.98 -12.926,0 0,225.414 50.945,0 c 49.203,0 72.094,-29.953 72.094,-74.762 0,-34.082 -13.559,-59.863 -41.527,-69.804 l 39.242,-80.848 -14.504,0"
         inkscape:connector-curvature="0"
         id="path64"
         style="fill:#192b49;fill-opacity:1;fill-rule:nonzero;stroke:none" /><path
         d="m 696.18,948.977 c -3.274,11.601 -6.828,25.765 -6.828,25.765 l -0.622,0 c 0,0 -3.519,-14.164 -6.757,-25.765 l -28.969,-101.082 72.07,0 -28.894,101.082 z m 50.218,-174.473 -17.699,61.16 -79.215,0 -17.722,-61.16 -13.547,0 65.98,225.414 9.715,0 65.973,-225.414 -13.485,0"
         inkscape:connector-curvature="0"
         id="path66"
         style="fill:#192b49;fill-opacity:1;fill-rule:nonzero;stroke:none" /><path
         d="m 803.68,818.926 c 10.285,-21.567 31.23,-35.43 57.597,-35.43 34.797,0 49.301,23.488 49.301,46.082 0,30.539 -26.426,42.809 -51.824,54.051 -28.348,12.934 -58.871,27.437 -58.871,63.785 0,31.203 22.457,55.706 60.773,55.706 30.946,0 50.227,-15.835 59.864,-40.593 l -11.508,-5.5 c -6.524,17.106 -21.949,33.875 -48.965,33.875 -29.008,0 -47.324,-19.047 -47.324,-43.175 0,-28.985 27.015,-41.52 50.226,-51.852 31.254,-13.812 60.457,-28.602 60.457,-65.371 0,-31.816 -20.918,-59.539 -62.129,-59.223 -31.797,0.313 -57.882,17.082 -68.859,40.887 l 11.262,6.758"
         inkscape:connector-curvature="0"
         id="path68"
         style="fill:#192b49;fill-opacity:1;fill-rule:nonzero;stroke:none" /><path
         d="m 1008.14,774.504 0,213.195 -56.011,0 0,12.219 124.591,0 0,-12.219 -55.73,0 0,-213.195 -12.85,0"
         inkscape:connector-curvature="0"
         id="path70"
         style="fill:#192b49;fill-opacity:1;fill-rule:nonzero;stroke:none" /><path
         d="m 1178.22,862.73 c 39.88,0 59.23,23.793 59.23,62.426 0,38.66 -19.35,62.543 -59.23,62.543 l -38.02,0 0,-124.969 38.02,0 z m 55.3,-88.226 -36.97,77.644 c -5.49,-1.347 -11.92,-1.664 -18.33,-1.664 l -38.02,0 0,-75.98 -12.93,0 0,225.414 50.95,0 c 49.2,0 72.07,-29.953 72.07,-74.762 0,-34.082 -13.55,-59.863 -41.52,-69.804 l 39.28,-80.848 -14.53,0"
         inkscape:connector-curvature="0"
         id="path72"
         style="fill:#192b49;fill-opacity:1;fill-rule:nonzero;stroke:none" /><path
         d="m 1420.35,999.918 12.85,0 0,-150.055 c 0,-51.55 -22.86,-78.582 -62.12,-78.582 -39.24,0 -62.16,27.032 -62.16,78.582 l 0,150.055 12.86,0 0,-152.34 c 0,-42.762 19.7,-64.082 49.3,-64.082 29.93,0 49.27,21.008 49.27,64.082 l 0,152.34"
         inkscape:connector-curvature="0"
         id="path74"
         style="fill:#192b49;fill-opacity:1;fill-rule:nonzero;stroke:none" /><path
         d="m 1621.25,822.848 c -10.61,-31.578 -30.59,-51.567 -62.15,-51.567 -49.84,0 -70.76,49.586 -70.76,115.961 0,66.289 20.92,115.878 70.76,115.878 32.5,0 52.78,-21.222 63.11,-54.444 l -11.89,-3.844 c -8.69,29.008 -25.16,46.375 -51.22,46.375 -40.53,0 -57.92,-42.859 -57.92,-103.965 0,-61.172 17.39,-104.051 57.92,-104.051 25.13,0 41.59,16.465 50.22,43.184 l 11.93,-3.527"
         inkscape:connector-curvature="0"
         id="path76"
         style="fill:#192b49;fill-opacity:1;fill-rule:nonzero;stroke:none" /><path
         d="m 1712.06,774.504 0,213.195 -56.02,0 0,12.219 124.55,0 0,-12.219 -55.61,0 0,-213.195 -12.92,0"
         inkscape:connector-curvature="0"
         id="path78"
         style="fill:#192b49;fill-opacity:1;fill-rule:nonzero;stroke:none" /><path
         d="m 1939.07,999.918 12.85,0 0,-150.055 c 0,-51.55 -22.8,-78.582 -62.13,-78.582 -39.26,0 -62.15,27.032 -62.15,78.582 l 0,150.055 12.95,0 0,-152.34 c 0,-42.762 19.57,-64.082 49.2,-64.082 29.99,0 49.28,21.008 49.28,64.082 l 0,152.34"
         inkscape:connector-curvature="0"
         id="path80"
         style="fill:#192b49;fill-opacity:1;fill-rule:nonzero;stroke:none" /><path
         d="m 2069.18,862.73 c 39.97,0 59.24,23.793 59.24,62.426 0,38.66 -19.27,62.543 -59.24,62.543 l -38.01,0 0,-124.969 38.01,0 z m 55.4,-88.226 -37.07,77.644 c -5.48,-1.347 -11.92,-1.664 -18.33,-1.664 l -38.01,0 0,-75.98 -12.86,0 0,225.414 50.87,0 c 49.29,0 72.08,-29.953 72.08,-74.762 0,-34.082 -13.48,-59.863 -41.54,-69.804 l 39.36,-80.848 -14.5,0"
         inkscape:connector-curvature="0"
         id="path82"
         style="fill:#192b49;fill-opacity:1;fill-rule:nonzero;stroke:none" /><path
         d="m 2203.49,774.504 0,225.414 105.86,0 0,-12.219 -93.01,0 0,-105.008 80.17,0 0,-12.226 -80.17,0 0,-83.668 93.01,0 0,-12.293 -105.86,0"
         inkscape:connector-curvature="0"
         id="path84"
         style="fill:#192b49;fill-opacity:1;fill-rule:nonzero;stroke:none" /><path
         d="m 854.242,482.949 c 10.317,-21.59 31.281,-35.398 57.625,-35.398 34.762,0 49.266,23.488 49.266,46 0,30.609 -26.399,42.84 -51.789,54.129 -28.364,12.851 -58.914,27.351 -58.914,63.699 0,31.269 22.461,55.711 60.777,55.711 30.969,0 50.231,-15.762 59.941,-40.602 l -11.605,-5.429 c -6.488,17.031 -21.91,33.82 -48.945,33.82 -28.989,0 -47.332,-19.027 -47.332,-43.199 0,-28.899 27.035,-41.5 50.226,-51.789 31.266,-13.852 60.567,-28.672 60.567,-65.301 0,-31.91 -21.004,-59.602 -62.192,-59.25 -31.832,0.308 -57.914,17 -68.906,40.859 l 11.281,6.75"
         inkscape:connector-curvature="0"
         id="path86"
         style="fill:#192b49;fill-opacity:1;fill-rule:nonzero;stroke:none" /><path
         d="m 1148.22,551.199 c 0,61.18 -17.73,103.981 -58.24,103.981 -40.59,0 -57.99,-42.801 -57.99,-103.981 0,-61.179 17.4,-103.949 57.99,-103.949 40.51,0 58.24,42.77 58.24,103.949 z m -129.08,0 c 0,66.27 20.94,115.891 70.84,115.891 49.9,0 71.14,-49.621 71.14,-115.891 0,-66.34 -21.24,-115.859 -71.14,-115.859 -49.9,0 -70.84,49.519 -70.84,115.859"
         inkscape:connector-curvature="0"
         id="path88"
         style="fill:#192b49;fill-opacity:1;fill-rule:nonzero;stroke:none" /><path
         d="m 1219.75,438.539 0,225.332 12.85,0 0,-213.082 93.01,0 0,-12.25 -105.86,0"
         inkscape:connector-curvature="0"
         id="path90"
         style="fill:#192b49;fill-opacity:1;fill-rule:nonzero;stroke:none" /><path
         d="m 1484.06,663.871 12.87,0 0,-150.043 c 0,-51.476 -22.82,-78.488 -62.16,-78.488 -39.26,0 -62.13,27.012 -62.13,78.488 l 0,150.043 12.95,0 0,-152.281 c 0,-42.801 19.57,-64.039 49.18,-64.039 30.05,0 49.29,20.929 49.29,64.039 l 0,152.281"
         inkscape:connector-curvature="0"
         id="path92"
         style="fill:#192b49;fill-opacity:1;fill-rule:nonzero;stroke:none" /><path
         d="m 1599.98,438.539 0,213.109 -56.02,0 0,12.223 124.67,0 0,-12.223 -55.71,0 0,-213.109 -12.94,0"
         inkscape:connector-curvature="0"
         id="path94"
         style="fill:#192b49;fill-opacity:1;fill-rule:nonzero;stroke:none" /><path
         d="m 1719.18,438.539 12.8594,0 0,225.332 -12.8594,0 0,-225.332 z"
         inkscape:connector-curvature="0"
         id="path96"
         style="fill:#192b49;fill-opacity:1;fill-rule:nonzero;stroke:none" /><path
         d="m 1919.78,551.199 c 0,61.18 -17.68,103.981 -58.27,103.981 -40.62,0 -58.01,-42.801 -58.01,-103.981 0,-61.179 17.39,-103.949 58.01,-103.949 40.59,0 58.27,42.77 58.27,103.949 z m -129.1,0 c 0,66.27 20.91,115.891 70.83,115.891 49.88,0 71.14,-49.621 71.14,-115.891 0,-66.34 -21.26,-115.859 -71.14,-115.859 -49.92,0 -70.83,49.519 -70.83,115.859"
         inkscape:connector-curvature="0"
         id="path98"
         style="fill:#192b49;fill-opacity:1;fill-rule:nonzero;stroke:none" /><path
         d="m 2111.63,438.539 -95.89,173.84 c -7.05,13.191 -12.23,25.402 -12.23,25.402 l -0.63,0 c 0,0 1.26,-13.84 1.26,-29.301 l 0,-169.941 -12.87,0 0,225.332 11.29,0 95.59,-174.191 c 5.48,-9.918 12.53,-25.758 12.53,-25.758 l 0.62,0 c 0,0 -0.93,18.43 -0.93,28.969 l 0,170.98 12.84,0 0,-225.332 -11.58,0"
         inkscape:connector-curvature="0"
         id="path100"
         style="fill:#192b49;fill-opacity:1;fill-rule:nonzero;stroke:none" /><path
         d="m 2189.63,482.949 c 10.26,-21.59 31.17,-35.398 57.57,-35.398 34.81,0 49.29,23.488 49.29,46 0,30.609 -26.39,42.84 -51.86,54.129 -28.29,12.851 -58.85,27.351 -58.85,63.699 0,31.269 22.49,55.711 60.83,55.711 30.9,0 50.21,-15.762 59.83,-40.602 l -11.59,-5.429 c -6.41,17.031 -21.84,33.82 -48.89,33.82 -28.99,0 -47.33,-19.027 -47.33,-43.199 0,-28.899 27.04,-41.5 50.23,-51.789 31.17,-13.852 60.49,-28.672 60.49,-65.301 0,-31.91 -20.91,-59.602 -62.15,-59.25 -31.79,0.308 -57.87,17 -68.86,40.859 l 11.29,6.75"
         inkscape:connector-curvature="0"
         id="path102"
         style="fill:#192b49;fill-opacity:1;fill-rule:nonzero;stroke:none" /></g></g></svg>
